<svg width="40" height="40" viewBox="0 0 40 40" fill="none" xmlns="http://www.w3.org/2000/svg">
<path d="M27.8369 18.2821C25.5401 18.2821 25.2212 20.6914 25.2212 20.6914H30.1045C30.1045 20.6914 30.1409 18.2821 27.8369 18.2821Z" fill="#1F8F89"/>
<path d="M16.7449 14.7827H12.4126V18.2821H16.4768C17.1797 18.2821 17.7955 18.0455 17.7955 16.4141C17.7955 14.7827 16.7449 14.7827 16.7449 14.7827Z" fill="#1F8F89"/>
<path d="M12.4126 24.8851H16.5278C17.1437 24.8699 18.31 24.6794 18.31 22.8492C18.3174 20.6765 16.7449 20.6917 16.7449 20.6917H12.4126V24.8851Z" fill="#1F8F89"/>
<path fill-rule="evenodd" clip-rule="evenodd" d="M1.75736 1.75736C0 3.51472 0 6.34315 0 12V28C0 33.6569 0 36.4853 1.75736 38.2426C3.51472 40 6.34315 40 12 40H28C33.6569 40 36.4853 40 38.2426 38.2426C40 36.4853 40 33.6569 40 28V12C40 6.34315 40 3.51472 38.2426 1.75736C36.4853 0 33.6569 0 28 0H12C6.34315 0 3.51472 0 1.75736 1.75736ZM22.0626 22.0032C22.0626 21.9724 22.07 15.9874 27.7788 15.9874C33.8069 15.9874 32.9591 22.7881 32.9591 22.7881H25.2505C25.2505 25.6931 27.8659 25.5099 27.8659 25.5099C30.3435 25.5099 30.2568 23.8251 30.2568 23.8251H32.8721C32.8721 28.3004 27.7788 27.9956 27.7788 27.9956C21.6715 27.9956 22.0626 22.0032 22.0626 22.0032ZM20.9545 16.1705C20.9545 18.9762 18.6869 19.1516 18.6869 19.1516C21.6789 19.1516 21.4756 23.0399 21.4756 23.0399C21.4756 27.8202 16.7445 27.6675 16.7445 27.6675H9V12H16.7452C19.0999 12 20.9545 13.3726 20.9545 16.1705ZM24.5764 14.8524V12.9233H30.7203V14.8524H24.5764Z" fill="#1F8F89"/>
</svg>
