<svg width="40" height="40" viewBox="0 0 40 40" fill="none" xmlns="http://www.w3.org/2000/svg">
<path fill-rule="evenodd" clip-rule="evenodd" d="M1.75736 1.75736C0 3.51472 0 6.34315 0 12V28C0 33.6569 0 36.4853 1.75736 38.2426C3.51472 40 6.34315 40 12 40H28C33.6569 40 36.4853 40 38.2426 38.2426C40 36.4853 40 33.6569 40 28V12C40 6.34315 40 3.51472 38.2426 1.75736C36.4853 0 33.6569 0 28 0H12C6.34315 0 3.51472 0 1.75736 1.75736ZM22.3848 20.3008C23.4447 20.1003 24.4831 20 25.5 20C27.3906 20 29.2096 20.3223 30.957 20.9668C30.9857 20.5944 31 20.2721 31 20C31 18.3529 30.6527 16.7988 29.958 15.3379C29.2633 13.877 28.3073 12.6309 27.0898 11.5996C26.4883 12.7884 25.6683 13.8626 24.6299 14.8223C23.5915 15.7819 22.4062 16.5768 21.0742 17.207C21.5612 18.1667 21.998 19.1979 22.3848 20.3008ZM14.9297 10.2461C17.0495 11.4349 18.8757 13.3542 20.4082 16.0039C21.6686 15.431 22.7751 14.6934 23.7275 13.791C24.68 12.8887 25.4284 11.8789 25.9727 10.7617C24.1536 9.58724 22.1628 9 20 9C18.2096 9 16.5195 9.41536 14.9297 10.2461ZM14.5 17.25C16.1042 17.25 17.6582 16.9922 19.1621 16.4766C17.6009 13.8555 15.7318 12.0579 13.5547 11.084C11.6927 12.4447 10.3822 14.2135 9.62305 16.3906C11.2129 16.9635 12.8385 17.25 14.5 17.25ZM19.8281 17.7012C18.138 18.3171 16.362 18.625 14.5 18.625C12.724 18.625 10.9694 18.3171 9.23633 17.7012C9.07878 18.4603 9 19.2266 9 20C9 21.5469 9.30436 23.0114 9.91309 24.3936C10.5218 25.7757 11.3704 26.9753 12.459 27.9922C13.1465 26.2734 14.2458 24.7624 15.7568 23.459C17.2679 22.1556 19.0404 21.2103 21.0742 20.623C20.7018 19.5918 20.2865 18.6178 19.8281 17.7012ZM22.7285 30.6348C22.6999 27.5553 22.2845 24.6549 21.4824 21.9336C19.5632 22.4922 17.9053 23.3874 16.5088 24.6191C15.1123 25.8509 14.1419 27.2832 13.5977 28.916C15.5169 30.3053 17.651 31 20 31C20.9023 31 21.8118 30.8783 22.7285 30.6348ZM25.5 21.375C24.612 21.375 23.7168 21.4609 22.8145 21.6328C23.6022 24.2969 24.0319 27.1543 24.1035 30.2051C25.7793 29.5319 27.208 28.5007 28.3896 27.1113C29.5713 25.722 30.3555 24.1393 30.7422 22.3633C29.0521 21.7044 27.3047 21.375 25.5 21.375Z" fill="#1F8F89"/>
</svg>
