<svg width="40" height="40" viewBox="0 0 40 40" fill="none" xmlns="http://www.w3.org/2000/svg">
<path fill-rule="evenodd" clip-rule="evenodd" d="M1.75736 1.75736C0 3.51472 0 6.34315 0 12V28C0 33.6569 0 36.4853 1.75736 38.2426C3.51472 40 6.34315 40 12 40H28C33.6569 40 36.4853 40 38.2426 38.2426C40 36.4853 40 33.6569 40 28V12C40 6.34315 40 3.51472 38.2426 1.75736C36.4853 0 33.6569 0 28 0H12C6.34315 0 3.51472 0 1.75736 1.75736ZM15.3131 16.1807V29H11.2403V16.1807H15.3131ZM15.5816 12.2149C15.5816 13.4451 14.6975 14.4294 13.2772 14.4294H13.2507C11.8838 14.4294 11 13.4451 11 12.2149C11 10.9571 11.911 10 13.3042 10C14.6976 10 15.5551 10.957 15.5816 12.2149ZM21.6403 29H17.5675C17.5675 29 17.621 17.3834 17.5676 16.1805H21.6404V17.9955C22.1817 17.1221 23.1505 15.8798 25.311 15.8798C27.9907 15.8798 30 17.7119 30 21.6495V28.9999H25.9274V22.1419C25.9274 20.4186 25.3378 19.243 23.864 19.243C22.7389 19.243 22.0688 20.0358 21.7743 20.8013C21.6668 21.0752 21.6403 21.458 21.6403 21.8411V29Z" fill="#1F8F89"/>
</svg>
